<?xml version="1.0" encoding="UTF-8" standalone="no"?>
<svg
   width="909.02454"
   height="864.90991"
   viewBox="0 0 909.02454 864.90991"
   version="1.1"
   id="svg2599"
   sodipodi:docname="logo.svg"
   inkscape:export-filename="../../../../../Imágenes/IA/logo4.svg"
   inkscape:export-xdpi="96"
   inkscape:export-ydpi="96"
   xmlns:inkscape="http://www.inkscape.org/namespaces/inkscape"
   xmlns:sodipodi="http://sodipodi.sourceforge.net/DTD/sodipodi-0.dtd"
   xmlns="http://www.w3.org/2000/svg"
   xmlns:svg="http://www.w3.org/2000/svg">
  <defs
     id="defs2603" />
  <sodipodi:namedview
     id="namedview2601"
     pagecolor="#ffffff"
     bordercolor="#000000"
     borderopacity="0.25"
     inkscape:showpageshadow="2"
     inkscape:pageopacity="0.0"
     inkscape:pagecheckerboard="0"
     inkscape:deskcolor="#d1d1d1"
     showgrid="false" />
  <path
     fill="#333354"
     d="m 678.61875,729.75904 c -7.682,3.494 -17.775,6.833 -25.843,9.836 l -36.084,13.791 c -39.953,14.957 -79.757,30.307 -119.408,46.048 l -105.556,41.059 -32.296,12.673 c -18.34,7.241 -35.35,15.488 -55.493,9.907 -28.036,-7.768 -35.78,-29.476 -46.472,-53.336 l -18.379,-41.465 c -21.068,-47.94 -41.248,-95.853 -63.135,-143.519 l -104.925002,-229.973 -36.151,-79.575 c -7.67,-16.745 -16.356,-34.382 -22.6724,-51.573 -4.4434003,-12.093 -3.2285003,-26.736 0.2817,-38.9 3.4369,-11.91 13.0217,-31.618 24.3847,-37.875 4.443,-2.446 12.62,-5.418 17.623,-7.318 7.482,-2.811 14.934,-5.704 22.352,-8.679 37.282002,-14.543 74.663002,-28.827 112.142002,-42.852 74.168,-28.619998 148.523,-56.752998 223.059,-84.395998 l 58.359,-21.6499 c 22.891,-8.5906 48.372,-21.48750023 72.848,-14.6958002 19.656,5.4543002 25.217,23.9147002 33.593,40.3097002 l 29.693,58.759998 60.771,118.967 c 16.987,33.672 34.321,69.278 52.253,102.357 9.689,-26.744 23.736,-54.613 45.26,-73.947 9.608,12.83 19.398,31.978 28.035,45.941 2.774,4.486 11.595,20.035 13.043,24.254 -7.17,28.776 -12.143,59.73 -18.875,88.786 -1.071,4.622 -6.871,28.665 -6.814,31.608 l 1.461,2.69 c 1.106,4.62 14.803,28.722 17.71,34.438 l 15.78,30.068 c 16.406,31.153 22.814,44.502 2.461,72.641 -2.759,5.459 3.973,14.439 5.93,19.009 5.133,11.983 18.258,29.876 19.263,42.239 1.334,16.396 -16.759,22.926 -29.467,27.517 -25.15,9.086 -50.466,18.814 -75.655,28.407 3.07,23.962 7.285,47.221 19.215,68.544 1.434,2.562 3.055,6.234 3.714,9.072 -2.202,14.03 -38.316,-16.179 -42.381,-19.888 -4.888,10.152 -7.455,22.729 -6.939,34.018 0.214,4.682 2.942,11.195 -1.445,14.506 -1.985,0.19 -3.25,-0.189 -4.78,-1.633 -16.328,-15.407 -24.773,-54.968 -26.461,-76.171 z m -547.866,-570.348 c 6.521,11.891 12.824,25.995 18.634,38.352 l 26.864,57.046 88.528,188.805 92.119,196.071 29.124,61.168 c 5.669,11.863 12.49,25.447 17.465,37.422 l 177.263,-69.34 60.609,-23.768 c 12.993,-5.106 26.535,-10.853 39.774,-15.023 -5.602,-13.604 -13.749,-29.353 -20.293,-42.714 l -30.233,-62.091 -54.175,-111.32 c -7.64,-15.959 -15.378,-31.871 -23.214,-47.735 l -87.674,-178.757 -105.02,40.504 c -10.811,4.199 -76.316,30.726 -81.609,30.762 -1.868,-0.964 -1.244,-0.28 -2.196,-1.857 1.466,-4.064 18.958,-9.369 23.987,-11.277 12.256,-4.647 24.486,-9.362 36.69,-14.144 41.841,-16.527 83.851,-32.624 126.023,-48.288 l -9.485,-19.021 -126.134,48.967 c -9.43,3.592 -53.402,21.572 -59.255,21.014 l -0.589,-0.677 c 1.82,-4.214 9.979,-6.739 14.13,-8.358 51.692,-20.168 103.712,-39.502 155.402,-59.676 4.784,-1.867 9.582,-3.864 14.427,-5.544 -3,-6.259 -5.95,-12.543 -8.847,-18.851 -61.471,21.529 -121.706,48.245 -183.046,70.351 -1.301,0.469 -2.645,0.755 -3.982,0.328 -0.879,-1.549 -0.648,-0.715 -0.54,-2.631 2.887,-3.093 29.936,-12.792 35.012,-14.755 l 44.419,-17.557 48.719,-18.873 c 19.188,-7.564 37.197,-14.959 56.781,-21.672 -4.305,-8.767 -36.528,-77.432998 -38.962,-78.635998 -90.465,33.319 -180.706,67.244998 -270.716,101.774998 z m -86.981002,33.483 c 9.019,22.166 21.047,46.446 30.729,68.808 13.494,-6.836 25.123,-10.084 40.114002,-5.393 10.065,3.149 17.896,9.561 23.098,18.855 2.77,4.95 1.493,8.226 -4.01,9.677 -8.088,2.131 -15.957,-1.771 -24.003,-2.251 -7.905,-0.278 -16.346002,4.129 -22.900002,8.263 6.423,15.538 14.865002,31.842 20.761002,46.693 12.363,-7.33 23.364,-9.052 37.501,-5.876 8.449,1.898 29.049,13.801 26.577,23.916 -0.544,2.148 -1.964,3.97 -3.915,5.02 -1.196,0.659 -3.393,1.371 -4.731,1.823 -13.229,-3.883 -25.452,-7.513 -38.756,-0.253 -1.532,0.819 -3.013,1.728 -4.436,2.724 1.67,5.245 4.88,11.272 7.106,16.417 4.527,10.466 9.876,21.337 14.177,31.856 12.2,-6.288 25.806,-9.742 39.297,-5.478 8.594,2.716 19.714,9.085 23.979,17.408 1.193,2.327 1.803,5.257 0.999,7.807 -0.49,1.552 -1.526,2.846 -2.994,3.57 -9.665,4.767 -27.039,-11.619 -48.345,4.329 6.641,14.375 15.248,35.013 22.44,48.447 9.701,-6.407 21.295,-8.434 32.697,-6.18 11.026,2.178 22.479,8.526 28.659,18.166 1.606,2.506 2.815,5.5 2.008,8.497 -0.479,1.781 -1.78,3.678 -3.421,4.578 -9.373,5.141 -28.265,-11.728 -47.548,3.07 1.116,3.809 2.725,7.426 4.295,11.064 5.621,13.023 10.831,26.246 17.221,38.921 10.777,-7.213 22.334,-10.184 35.187,-7.599 10.261,2.063 21.212,7.666 27.219,16.521 1.746,2.574 3.152,5.667 2.58,8.849 -0.388,2.154 -2.018,4.894 -4.016,5.912 -7.613,3.879 -21.057,-13.171 -48.597,4.373 2.521,6.022 5.088,12.026 7.699,18.01 4.344,10.361 8.914,20.625 13.706,30.786 21.145,-12.017 46.839,-10.937 61.5,10.493 5.363,7.839 1.732,18.273 -9.099,14.204 -15.068,-6.64 -26.274,-4.869 -39.499,4.326 1.952,5.805 4.593,11.722 7.077,17.339 12.766,28.87 26.339,57.516 38.509,86.639 32.07,-12.044 64.019,-24.41 95.841,-37.096 -7.664,-17.798 -17.336,-36.954 -25.633,-54.672 l -57.478,-122.142 -148.811,-316.269 c -3.918,-8.228 -40.276,-85.142 -41.748,-86.002 -17.855,8.256 -38.608002,15.051 -57.002002,22.454 -7.756,3.122 -16.483,5.854 -24.034,9.396 z m 692.402002,490.096 c 0.261,2.848 0.502,5.698 0.722,8.55 4.787,-1.704 9.523,-3.546 14.203,-5.524 l 50.79,-19.095 c 4.054,-1.522 11.946,-4.892 15.735,-5.913 13.02,-3.51 19.965,-12.006 12.764,-25.096 -2.686,-4.882 -15.102,-31.027 -18.014,-33.567 -2.086,8.138 -4.27,16.417 -5.374,24.759 -0.568,3.853 0.799,7.686 1.261,11.441 2.151,17.5 -19.196,23.688 -31.846,28.822 -9.66,3.921 -19.755,7.536 -29.468,11.396 -3.558,1.414 -7.255,2.684 -10.773,4.227 z m -623.226,-310.101 c -10.01,15.426 -17.829002,40.222 -14.095002,59.16 1.478002,7.493 9.939002,25.265 13.850002,32.425 0.116,-1.537 0.205,-3.579 0.528,-5.027 3.066,-14.663 9.032,-29.616 20.005,-40.16 -2.677,-6.76 -17.031,-42.888 -20.288,-46.398 z m -33.313002,-74.53 c -10.892,15.787 -18.347,38.496 -15.733,58.044 0.801,5.988 10.143,26.106 13.676,31.588 0.112,-2.027 0.14,-4.578 0.66,-6.486 3.478,-14.573 10.458,-28.783 22.029002,-38.591 -3.694002,-7.26 -17.447002,-41.623 -20.632002,-44.555 z m 123.214002,274.83 c -4.583,-10.718 -9.237,-21.407 -13.96,-32.065 -2.147,-4.725 -5.72,-11.325 -7.489,-15.698 -2.68,4.637 -5.427,9.886 -7.264,14.62 -3.291,8.485 -10.065,34.959 -7.375,43.048 1.954,5.876 12.64,30.715 15.81,35.398 l 0.751,-4.904 c 2.364,-16.635 8.82,-27.95 19.527,-40.399 z m -14.119,61.012 c 1.38,-10.566 2.624,-18.162 6.799,-28.267 6.594,-14.727 15.034,-26.834 30.723,-33.207 10.878,-4.419 24.739,-3.479 35.385,1.406 1.217,0.564 2.414,1.17 3.589,1.817 -8.553,-7.584 -21.066,-12.827 -32.629,-11.234 -27.33,3.066 -42.798,30.926 -45.652,55.908 -0.597,5.222 -0.527,8.744 1.785,13.577 z m 27.385,60.422 c 0.29,-2.112 0.553,-4.185 0.945,-6.283 3.446,-14.599 8.547,-27.071 19.179,-37.821 -5.177,-14.718 -13.436,-32.413 -20.346,-46.662 -8.657,14.724 -18.042,41.331 -13.335,58.478 1.999,7.283 9.953,25.703 13.557,32.288 z m -50.265,-283.384 c -15.462,2.096 -25.579,7.395 -35.51,19.9 -7.667,9.654 -17.448,36.284 -11.235,47.713 l 0.453,0.109 c 1.927,-10.126 3.048,-17.247 6.552,-27.021 9.163,-24.381 32.087,-41.329 58.575,-34.311 2.176,0.576 8.513,3.903 10.447,5.206 -0.699,-2.127 -8.143,-5.981 -10.438,-7.221 -4.254,-2.298 -14.101,-4.825 -18.844,-4.375 z m 30.314,240.82 c 1.204,-10.262 1.178,-13.785 3.804,-24.137 8.331,-28.058 23.251,-52.645 57.702,-44.813 2.565,0.584 7.739,3.314 10.039,2.135 -0.491,-5.05 -21.482,-9.646 -26.234,-9.466 -34.045,2.256 -47.236,36.565 -48.108,66.576 -0.081,2.798 1.706,7.003 2.797,9.705 z M 91.561748,375.81504 c 14.408002,-29.632 38.368002,-44.34 70.057002,-28.73 0.333,0.165 0.666,0.332 0.998,0.501 -8.19,-6.434 -21.483,-14.285 -32.473,-11.836 -13.402,1.374 -24.993,7.715 -33.228002,18.315 -10.463,13.468 -18.601,33.444 -11.873,50.052 1.628,-12.252 2.117,-16.591 6.519,-28.302 z m 69.474002,196.818 c 1.493,-10.876 2.891,-18.28 6.193,-28.892 6.427,-17.566 15.644,-35.811 36.373,-37.912 10.563,-1.071 18.686,1.562 28.733,4.327 -6.425,-6.859 -17.531,-10.945 -26.724,-11.181 -1.529,-0.039 -3.058,0.008 -4.581,0.142 -13.01,2.915 -22.369,8.277 -29.386,19.935 -8.716,14.481 -16.119,36.99 -10.608,53.581 z m 133.335,208.478 c -3.874,-9.979 -42.177,-96.954 -44.736,-99.691 -11.886,17.886 -13.736,32.794 -15.826,53.684 12.298,26.623 23.683,53.746 35.947,80.338 0.754,-2.637 1.375,-5.208 2.538,-7.686 4.844,-10.861 12.142,-20.011 22.077,-26.645 z m -236.461002,-433.55 c 0.721,-8.533 1.44,-17.44 4.102,-25.628 10.479,-34.597 31.685,-52.605 65.419002,-41.549 1.129,0.37 2.3,-0.185 3.065,-1.081 -2.448,-4.774 -20.603,-8.624 -26.052,-8.542 -36.515002,3.001 -53.207002,44.738 -46.534002,76.8 z m 95.437002,210.946 c 1.425,-11.111 3.417,-20.497 7.613,-30.924 6.345,-14.111 14.928,-25.959 29.936,-31.606 10.253,-3.918 21.645,-3.584 31.651,0.928 2.862,1.303 5.633,3.029 8.291,4.704 -7.388,-8.072 -20.862,-15.224 -32.052,-13.834 -33.238,2.697 -51.348,40.949 -45.439,70.732 z m 81.379,141.662 c 10.73,-32.907 30.089,-48.48 64.822,-36.933 0.759,0.25 1.513,0.518 2.259,0.805 -8.964,-6.867 -18.407,-11.935 -30.118,-10.796 -32.81,4.063 -41.574,36.725 -45.782,64.318 1.076,2.838 2.133,5.948 3.562,8.597 1.636,-10.472 2.128,-15.835 5.257,-25.991 z m 501.703,-27.408 c 15.99,-6.761 32.246,-12.369 48.23,-19.074 4.899,-2.055 15.227,-5.772 13.411,-12.653 -5.045,3.212 -10.119,5.946 -15.624,8.292 -5.533,2.358 -45.263,15.79 -46.032,19.475 -0.276,1.319 -0.097,2.631 0.015,3.96 z M 56.740748,303.24904 c 12.955,-32.253 41.068,-48.08 73.370002,-31.079 -8.351,-7.156 -18.05,-12.098 -29.202,-12.368 -14.051002,0.622 -25.648002,6.05 -35.104002,16.482 -12.012,13.442 -18.189,31.107 -17.172,49.105 0.134,2.322 0.396,3.254 1.226,5.385 l 0.541,-0.089 c 2.302,-10.681 1.995,-16.114 6.341,-27.436 z m 112.155002,192.516 c -4.53,-9.921 -8.969,-19.882 -13.318,-29.884 -1.523,-3.445 -6.716,-15.41 -8.748,-18.042 -3.032,5.877 -5.524,11.107 -7.878,17.218 -3.963,10.286 -8.88,34.449 -5.443,45.131 2.289,7.112 10.333,22.851 14.032,29.803 l 0.878,-5.555 c 2.308,-13.393 9.285,-30.273 20.477,-38.671 z m 110.843,151.881 c 8.651,1.609 12.211,2.643 19.61,7.277 -4.854,-5.665 -12.86,-9.916 -20.007,-11.969 -36.762,-7.656 -62.473,33.471 -57.74,65.991 0.908,-3.577 1.773,-7.192 2.586,-10.792 6.478,-28.693 23.804,-52.108 55.551,-50.507 z m 244.647,-488.014 c 17.767,-7.006 35.584,-13.884 53.45,-20.634 9.109,-3.446 20.419,-7.945 29.613,-10.896 -1.888,-3.989 -7.089,-15.363 -9.603,-18.484 -13.863,5.109 -27.716,10.555 -41.548,15.788 -13.846,5.238 -28.155,10.406 -41.725,16.24 1.407,3.042 7.218,15.93 9.094,17.867 z m -392.386,187.114 c -14.327,3.618 -23.651,9.867 -31.327,22.798 -8.216002,13.842 -12.970002,33.156 -8.891002,49.012 0.35,1.356 0.731,2.704 1.145,4.043 0.104,-13.127 0.632,-19.31 4.564,-31.704 5.674002,-14.172 13.767002,-29.152 28.567002,-35.456 7.02,-2.949 14.728,-3.865 22.244,-2.643 4.078,0.625 13.076,4.507 15.544,3.357 -0.681,-2.102 -4.303,-3.952 -6.355,-4.996 -7.991,-4.068 -16.581,-5.61 -25.491,-4.411 z m 610.271,268.631 c -1.276,7.87 -6.268,38.071 -5.323,45.419 l 34.931,-13.818 c 6.301,-2.549 16.591,-6.669 22.356,-10.07 2.13,-6.117 11.472,-40.585 10.808,-45.335 -19.84,8.09 -42.395,16.064 -62.772,23.804 z m -610.566,-145.839 c 18.786,-62.672 63.849,-34.506 66.126,-37.935 -4.318,-6.411 -19.837,-10.517 -27.308,-9.855 -28.619,2.414 -41.496,29.143 -45.202,54.559 -1.125,7.715 -0.406,14.502 1.732,21.931 0.818,-10.454 1.675,-18.51 4.652,-28.7 z m 570.499,316.408 c 0.576,-7.478 1.911,-14.029 3.88,-21.275 1.529,-4.135 6.52,-20.617 12.361,-16.737 9.064,6.02 16.717,14.089 26.513,19.478 -15.243,-43.038 -20.863,-75.271 -16.181,-121.587 0.683,-6.762 1.433,-18.934 2.769,-25.057 l -0.662,-0.295 c -12.711,5.471 -24.821,9.954 -37.75,14.721 -7.934,46.709 -11.897,106.518 9.07,150.752 z m -24.44,-84.877 c -0.064,-1.686 0.026,-4.361 -0.651,-5.792 l -0.238,-0.208 c -28.165,11.833 -58.444,22.877 -87.022,33.94 l -143.022,55.698 c -25.995,10.336 -52.054,20.514 -78.174,30.53 -14.787,5.81 -30.028,12.954 -45.347,16.924 -16.745,4.339 -30.488,-0.463 -43.603,-10.642 l -0.65,0.505 c 0,1.603 -0.153,2.422 1.261,3.847 24.047,25.154 58.405,6.841 85.025,-3.863 l 35.696,-14.253 190.718,-73.762 57.283,-22.245 c 6.722,-2.607 22.365,-9.124 28.724,-10.679 z M 44.166748,308.44504 c 3.73,-16.386 10.159,-30.119 23.151,-41.03 -2.474,-5.984 -29.74,-68.039 -31.2,-69.514 -12.419,18.762 -20.8873,34.723 -17.095,58.709 1.189,7.515 6.474,17.668 9.628,24.786 4.728,10.67 10.129,21.341 14.627,32.137 z m 236.445002,505.454 c 2.601,2.831 5.922,6.256 9.258,8.211 10.808,6.427 21.672,7.772 33.702,4.443 14.839,-4.106 29.444,-10.647 43.772,-16.392 l 63.348,-24.909 246.991,-95.967 c 0.542,-12.165 2.25,-36.885 4.583,-48.778 l -0.376,-0.909 -0.707,-0.052 c -36.542,13.912 -72.975,28.109 -109.296,42.587 l -136.64,53.557 -88.692,34.359 c -14.852,5.721 -30.794,10.747 -44.983,17.959 -9.789,4.977 -17.504,15.573 -20.96,25.891 z m 4.765,28.004 5.621,4.92 c 12.072,7.505 23.067,10.43 37.047,6.847 13.493,-3.459 27.519,-9.588 40.599,-14.701 l 55.655,-21.486 145.463,-56.3 62.339,-24.066 c 14.074,-5.493 31.891,-12.958 46.163,-17.514 -0.227,-2.208 -0.448,-7.142 -1.655,-8.56 -31.247,12.632 -62.636,24.911 -94.16,36.834 l -136.649,52.922 -74.594,29.257 c -32.446,12.777 -50.982,25.825 -85.829,11.847 z m 300.115,-755.340998 c -17.471,6.888 -35,13.630998 -52.584,20.226998 -9.376,3.583 -21.15,7.854 -30.245,11.991 1.87,3.785 7.32,15.903 9.715,18.16 l 0.544,-0.062 c 15.831,-6.954 32.961,-13.107 49.218,-19.245 10.274,-3.878 23.471,-9.382 33.752,-12.388 -3.144,-6.215998 -6.221,-12.525998 -9.796,-18.500998 z m -61.874,-72.355 c -16.474,2.46 -45.248,14.738 -62.091,20.662 12.355,26.832 26.551,52.716 38.813,79.480998 5.655,-2.328 11.335,-4.595 17.039,-6.801 21.205,-8.420998 45.059,-17.802998 66.441,-25.442998 l -15.506,-31.197 c -10.921,-21.995 -15.791,-39.2204 -44.696,-36.702 z m 85.597,118.017998 c -19.175,8.283 -39.264,15.393 -58.712,23.078 -7.515,2.969 -17.374,6.088 -24.532,9.383 5.205,11.831 12.193,25.054 17.913,36.85 l 38.866,79.609 96.155,196.613 38.722,78.182 c 6.185,12.468 18.494,36.189 22.93,48.458 l 0.714,0.664 c 1.227,-0.084 43.833,-15.622 48.607,-17.519 4.016,-1.593 7.959,-3.365 11.816,-5.31 12.778,-6.568 20.165,-17.024 19.604,-31.956 -0.257,-6.844 -4.071,-13.728 -6.858,-19.828 -6.659,-13.114 -13.59,-26.193 -20.412,-39.237 l -54.346,-103.658 -93.176,-182.39 c -3.972,-7.849 -34.394,-70.004 -37.291,-72.939 z"
     id="path2553" />
  <path
     fill="#dedcd6"
     d="m 764.82375,253.71304 c 9.608,12.83 19.398,31.978 28.035,45.941 2.774,4.486 11.595,20.035 13.043,24.254 -7.17,28.776 -12.143,59.73 -18.875,88.786 -1.071,4.622 -6.871,28.665 -6.814,31.608 -1.637,-2 -15.409,-28.859 -17.139,-32.265 -14.157,-27.867 -29.808,-56.353 -43.51,-84.377 9.689,-26.744 23.736,-54.613 45.26,-73.947 z"
     id="path2555" />
  <path
     fill="#a7a6a3"
     d="m 452.42175,38.515042 c 2.487,1.607 29.487,58.238 33.309,66.025998 l 62.018,126.414 184.685,376.598 c -13.606,5.691 -27.831,11.185 -41.543,16.721 l -1.369,0.418 c -2.471,-1.293 -34.461,-69.874 -38.723,-78.534 l -154.021,-316.259 c -28.252,-58.008 -58.914,-117.237 -85.613,-175.623998 13.866,-5.641 27.333,-10.403 41.257,-15.76 z"
     id="path2557" />
  <path
     fill="#a7a6a3"
     fill-opacity="0.0156863"
     d="m 279.34175,642.95404 c 7.147,2.053 15.153,6.304 20.007,11.969 -7.399,-4.634 -10.959,-5.668 -19.61,-7.277 -0.414,-1.404 -0.691,-2.209 -1.228,-3.571 z"
     id="path2559" />
  <path
     fill="#dedcd6"
     d="m 718.34575,80.891042 c 32.995,-3.866 62.887,19.723998 66.795,52.714998 3.908,32.991 -19.645,62.913 -52.631,66.862 -33.044,3.957 -63.031,-19.647 -66.946,-52.697 -3.915,-33.05 19.727,-63.005998 52.782,-66.879998 z"
     id="path2561" />
  <path
     fill="#dedcd6"
     d="m 110.83475,6.6396418 0.693,0.1641 c 1.066,3.1688 -6.114,54.9723002 -7.161,61.7113002 -5.515002,5.914 -19.110002,16.942 -25.703002,22.798 -15.039,13.391998 -29.807,27.083998 -44.295,41.068998 -3.304,3.185 -26.0959003,26.86 -27.5761003,27.614 l -0.8112,-0.384 -0.5824,-2.442 c -9.1146,-31.219 -7.241,-60.246998 9.8645003,-88.452998 21.7372,-35.843 56.4772,-52.4624 95.571202,-62.0774002 z"
     id="path2563" />
  <path
     fill="#dedcd6"
     d="m 864.83375,270.51204 c 2.085,2.426 6.634,18.072 7.768,21.757 5.131,16.673 7.59,34.745 9.23,52.087 -5.607,3.519 -15.507,11.727 -21.402,16.009 -20.846,15.14 -41.025,30.957 -61.861,46.167 -1.932,1.708 -7.777,5.679 -10.131,7.381 7.029,-27.915 12.578,-60.451 18.999,-89.256 18.831,-18.757 38.817,-35.59 57.397,-54.145 z"
     id="path2565" />
  <path
     fill="#dedcd6"
     d="m 788.03275,416.75804 c 19.536,-13.43 38.759,-28.448 57.722,-42.773 10.805,-8.162 26.246,-18.946 35.786,-27.943 -4.27,51.448 -30.869,92.784 -69.529,125.471 -4.097,3.446 -8.309,6.754 -12.628,9.917 -2.907,-5.716 -16.604,-29.818 -17.71,-34.438 2.268,-9.317 4.224,-20.612 6.359,-30.234 z"
     id="path2567" />
  <path
     fill="#dedcd6"
     d="m 168.40975,67.285042 0.897,-0.028 0.343,0.521 c -5.492,21.72 -12.67,38.650998 -25.653,57.079998 -33.848,0.813 -66.495002,1.582 -100.264002,4.191 -0.474,-0.076 -0.17,0.01 -0.818,-0.481 0.183,-0.417 0.232,-0.584 0.55,-0.984 4.145,-5.22 58.495002,-55.206998 63.576002,-56.717998 6.871,-2.043 15.785,-1.585 22.97,-1.913 12.796,-0.639 25.596,-1.195 38.399,-1.668 z"
     id="path2569" />
  <path
     fill="#dedcd6"
     d="m 135.65475,127.29504 6.839,-0.323 c -25.135,28.821 -67.916002,41.824 -105.178002,43.063 -6.855,0.228 -15.639,-1.306 -22.4337,-2.522 -2.1725,-0.443 -6.6766003,-1.112 -7.9246003,-2.818 2.5234,-3.576 28.8573003,-30.575 32.3583003,-33.187 10.381,-1.442 25.012,-1.653 35.703,-2.085 20.205,-0.89 40.418002,-1.599 60.636002,-2.128 z"
     id="path2571" />
  <path
     fill="#dedcd6"
     d="m 828.83075,204.01204 0.572,0.059 c 0.584,1.563 0.237,2.941 -0.076,4.58 -5.433,28.458 -12.252,56.624 -17.936,85.036 -1.626,8.126 -3.265,16.688 -5.726,24.583 -4.719,-7.041 -9.819,-16.438 -14.111,-23.909 -7.806,-13.538 -16.605,-29.552 -25.948,-41.992 19.183,-20.224 39.824,-33.616 63.225,-48.357 z"
     id="path2573" />
  <path
     fill="#dedcd6"
     d="m 833.07675,202.25804 c 3.289,1.889 29.466,60.508 31.729,66.107 -12.366,12.153 -26.638,23.499 -39.371,36.116 -5.279,4.343 -11.833,11.086 -17.336,15.917 3.085,-12.658 5.087,-25.148 7.709,-37.884 3.879,-18.692 7.924,-37.349 12.133,-55.969 1.674,-7.686 3.148,-16.872 5.136,-24.287 z"
     id="path2575" />
  <path
     fill="#dedcd6"
     d="m 182.30475,1.1177418 1.397,-0.30470003 c 1.298,2.86610003 -3.375,17.89470023 -4.109,21.96300023 -2.553,14.146 -6.272,28.167 -9.117,42.269 l -43.193,2.479 c -3.945,0.216 -15.621,1.153 -18.716,0.892 20.159,-20.814 43.923,-40.048 65.195,-59.8950002 2.778,-2.592 5.898,-4.4767 8.543,-7.4033 z"
     id="path2577" />
  <path
     fill="#dedcd6"
     d="m 114.48475,5.8200418 c 16.459,-2.8886 31.963,-4.7994 48.666,-5.39780003 5.265,-0.1886 12.773,-0.8228 17.884,-0.0432 -6.385,6.27960003 -18.415,15.68440023 -25.631,21.95120023 -16.526,14.3728 -32.585,29.2728 -48.154,44.6768 1.962,-20.001 5.12,-40.852 7.235,-61.1870002 z"
     id="path2579" />
  <path
     fill="#efece9"
     fill-opacity="0.0156863"
     d="m 181.03475,0.37904177 1.27,0.73870003 c -2.645,2.9266 -5.765,4.8113 -8.543,7.4033 -21.272,19.8470002 -45.036,39.0810002 -65.195,59.8950002 -0.579,-1.187 -0.198,-0.676 -1.317,-1.409 15.569,-15.404 31.628,-30.304 48.154,-44.6768 7.216,-6.2668 19.246,-15.6716002 25.631,-21.95120023 z"
     id="path2581" />
  <path
     fill="#efece9"
     fill-opacity="0.360784"
     d="m 908.01975,467.02004 0.295,0.306 c 1.309,3.768 0.59,13.56 -0.41,17.526 -0.411,-5.913 -0.637,-11.937 0.115,-17.832 z"
     id="path2587" />
  <path
     fill="#dedcd6"
     fill-opacity="0.258824"
     d="m 890.51975,456.73104 c 1.692,2.343 1.318,6.135 1.244,9.008 -1.67,-1.718 -1.259,-6.538 -1.244,-9.008 z"
     id="path2593" />
  <path
     fill="#dedcd6"
     fill-opacity="0.235294"
     d="m 862.72475,647.07304 c -0.672,1.404 -1.743,4.092 -2.999,4.672 0.078,-1.85 1.264,-3.327 2.272,-4.943 z"
     id="path2595" />
  <path
     style="fill:#ffe680;fill-opacity:1;stroke-width:1.21615"
     d="m 391.45839,60.656432 c -86.93429,32.02576 -173.55468,64.897888 -260.16626,97.786218 -0.21321,6.54676 6.02849,13.56184 8.3009,20.27517 87.19919,184.2191 172.67745,369.26051 260.62547,553.12151 1.57624,3.03563 3.6593,8.50901 7.9715,4.97386 90.49745,-34.82985 180.93345,-70.69899 271.21614,-105.54632 1.65778,-6.63249 -4.12166,-12.98125 -6.03048,-19.12783 C 604.92957,470.51161 535.87471,329.16637 466.35863,188.06498 c -4.90638,-1.26236 -10.08573,3.64313 -15.03324,4.43231 -55.12211,20.56629 -109.57108,42.99169 -164.7886,63.23752 -2.32592,0.52966 -7.86939,2.46387 -8.46319,0.72447 13.0212,-8.5638 28.88849,-11.70983 43.03951,-18.13036 47.11623,-18.52952 94.81949,-35.86949 141.71346,-54.77463 -0.11897,-6.54753 -5.40559,-12.42641 -8.76247,-17.90736 -3.83942,-3.79988 -9.45914,3.02328 -13.82976,3.17463 -55.13893,20.99101 -109.6898,43.60045 -165.33889,63.20779 -1.72727,0.73501 -9.05328,2.54577 -4.59145,-0.5582 32.62395,-14.89084 66.7862,-26.24443 100.09172,-39.53508 27.1365,-10.63965 54.73237,-20.45112 81.55674,-31.68819 -1.00047,-6.69815 -5.57585,-13.02106 -8.981,-18.95012 -7.27173,0.16564 -14.49729,5.0006 -21.6779,6.98165 -54.99457,20.42795 -108.9796,43.87082 -164.3126,63.09911 -1.28613,-3.48407 5.30829,-4.26407 7.21615,-5.87887 57.91349,-23.4308 116.46031,-45.35999 174.49645,-68.44655 1.69309,-4.41247 -3.33306,-9.4074 -4.31287,-13.8618 -10.19766,-22.04034 -19.85316,-44.433048 -32.04818,-65.465988 -3.42459,-1.16147 -7.40339,2.33238 -10.87412,2.93112 z"
     id="path4701" />
  <path
     style="fill:#ffe680;fill-opacity:1;stroke-width:1.21615"
     d="m 607.6983,133.19562 c -20.93172,6.13235 -40.73374,15.8016 -61.33871,23.00469 -6.57249,3.15218 -14.65983,4.60456 -20.1411,9.39198 26.66516,57.00352 55.07109,113.41349 82.50962,170.13601 43.12162,88.84369 87.34988,177.15531 130.11984,266.15853 1.27863,6.81089 8.60938,1.19669 12.46317,0.42281 17.9573,-7.09939 36.88119,-12.30279 53.89074,-21.51782 14.74246,-8.48816 21.30362,-28.58448 12.67729,-43.628 C 779.61133,460.95861 739.27415,385.8069 700.70781,309.74907 670.60812,251.7718 641.71574,193.16421 611.52966,135.24313 c -0.6377,-1.52969 -2.23014,-2.30022 -3.83136,-2.04751 z"
     id="path4703" />
  <path
     style="fill:#ffe680;fill-opacity:1;stroke-width:1.21615"
     d="m 527.67693,13.535289 c -19.52261,1.905622 -37.5013,10.918053 -56.01401,16.806283 -3.19972,1.65247 -11.06214,1.98464 -8.4373,7.39324 10.99853,25.87135 23.71297,51.08748 37,75.850358 6.28484,0.30441 12.66458,-4.51773 18.91859,-6.11354 21.14501,-8.479028 42.57499,-16.239878 63.77499,-24.584798 1.385,-4.7348 -3.8536,-9.68423 -5.09263,-14.31591 -8.2337,-15.44345 -14.86372,-32.0827 -25.26603,-46.192403 -6.38631,-6.670563 -15.84153,-9.366375 -24.88361,-8.84323 z"
     id="path4705" />
  <path
     style="fill:#ffe680;fill-opacity:1;stroke-width:1.21615"
     d="m 584.45127,86.518662 c -27.2021,10.33 -54.39026,20.702008 -81.49168,31.292158 -0.522,5.27662 4.68109,11.00478 6.93586,16.29216 2.44231,6.72538 9.61002,-0.56645 13.96618,-1.02158 23.55637,-9.31575 47.2941,-18.18239 71.0172,-27.11381 1.86978,-4.04656 -3.41099,-8.629558 -4.44165,-12.683788 -1.82366,-1.85533 -2.32928,-8.16691 -5.98591,-6.76514 z"
     id="path4707" />
  <path
     style="fill:#ffe680;fill-opacity:1;stroke-width:1.21615"
     d="m 597.5059,110.4189 c -22.79366,5.90287 -44.34194,16.07199 -66.5098,23.98824 -4.98756,2.97368 -13.28005,3.20375 -15.98663,8.85499 2.21441,5.39036 3.90463,12.60695 8.89548,15.95962 11.98641,-1.72744 22.89163,-8.48856 34.46986,-12.00495 16.02564,-6.49079 32.85784,-11.79406 48.43988,-18.91904 0.30277,-6.38126 -4.88232,-12.15639 -7.77909,-17.55107 -0.45517,-0.28072 -1.0054,-0.34583 -1.5297,-0.32779 z"
     id="path4709" />
  <path
     style="fill:#ffe680;fill-opacity:1;stroke-width:1.21615"
     d="m 812.25175,604.2645 c -4.58918,5.7935 -3.94573,14.70398 -5.1639,21.83848 -1.27638,9.54459 3.66443,22.10261 -6.2304,28.38005 -19.29648,12.70812 -42.6682,17.24111 -62.87649,28.06651 -3.17879,2.02653 -3.33145,11.20089 1.96678,8.41851 28.64228,-11.43673 58.27245,-20.62591 86.12349,-33.93158 7.84698,-2.96095 9.71291,-12.53847 5.56294,-19.23515 -5.63585,-11.29268 -10.29321,-23.63784 -18.35154,-33.3848 -0.31461,-0.15911 -0.68166,-0.22829 -1.03088,-0.15202 z"
     id="path4711" />
  <path
     style="fill:#ffe680;fill-opacity:1;stroke-width:0.429975"
     d="m 676.47081,710.53801 c -11.65857,3.66279 -22.80034,8.84032 -34.24187,13.13024 -51.88817,20.31005 -104.00303,40.03572 -155.88853,60.3534 -47.92525,18.68376 -95.88539,37.28872 -143.59542,56.51409 -9.60064,3.69009 -19.73387,6.77616 -30.11419,6.09814 -8.70715,0.4264 -17.08705,-2.35641 -25.28539,-4.77976 -2.51987,0.36344 -0.75534,2.88289 0.56686,3.58341 6.47991,5.44866 14.63892,8.83598 22.93059,10.32191 10.72014,1.31939 21.27403,-1.80521 31.22551,-5.46158 26.84066,-10.10142 53.47929,-20.74003 80.2639,-30.99278 81.16423,-31.42856 162.37024,-62.75182 243.50136,-94.26335 4.08259,-1.8407 8.73232,-2.53373 12.60902,-4.81333 1.45445,-2.17176 0.0857,-5.11008 -0.11338,-7.51868 -0.19041,-0.9685 -0.57971,-2.33688 -1.85846,-2.17171 z"
     id="path4717" />
  <path
     style="fill:#ac9393;fill-opacity:1;stroke-width:1.21615"
     d="m 432.78144,45.095862 c -6.76441,3.2234 -15.15662,4.60505 -20.90499,9.22565 4.44365,15.69874 13.29269,30.03451 19.84237,44.99034 84.11524,171.268408 167.74927,342.791208 250.95627,514.505608 2.64812,3.36457 3.52153,11.16119 8.88545,10.83184 13.33131,-5.69767 27.86372,-9.53271 40.07601,-17.39192 1.72354,-4.90895 -4.68778,-9.57056 -5.58422,-14.35186 C 637.10286,412.00414 548.71663,230.80253 459.72241,49.920642 c -3.22559,-3.60026 -3.96637,-13.85006 -10.07928,-11.23164 -5.62057,2.13562 -11.24113,4.27124 -16.86169,6.40686 z"
     id="path4788" />
  <path
     style="fill:#ac9393;fill-opacity:1;stroke-width:1.21615"
     d="m 730.15436,620.52816 c -12.52963,4.82053 -25.7797,8.97206 -37.53207,15.16627 -6.72818,35.25061 -7.61618,71.62169 -3.82422,107.26841 2.40789,13.32408 5.05092,27.35697 11.90736,39.11401 4.36273,0.55115 3.15254,-6.80808 4.24703,-9.73634 2.14849,-8.65887 4.60265,-18.39256 11.32542,-24.60333 9.00078,5.32425 16.66356,13.46052 26.2684,17.85986 3.45789,-2.35886 -1.00126,-7.97601 -1.10213,-11.31829 -11.9857,-32.90398 -14.65596,-68.07415 -12.24501,-102.84566 -0.0502,-10.17341 2.69654,-20.69074 1.95522,-30.69353 l -0.87173,-0.22803 z"
     id="path4790" />
  <path
     style="fill:#ac9393;fill-opacity:1;stroke-width:1.21615"
     d="m 114.02134,164.96522 c -22.898742,9.49402 -46.819782,17.09913 -69.273162,27.50356 0.79909,9.03436 6.53737,17.37891 9.55367,25.95215 6.28437,14.32825 12.84699,28.53035 19.37033,42.75094 7.03838,-0.18609 13.9392,-5.49732 21.59382,-5.50119 17.166262,-2.20554 37.616722,6.06626 43.080762,23.55582 -1.50264,7.26614 -11.55919,4.52952 -16.6712,4.41623 -9.62321,-1.83296 -19.71259,-2.26377 -28.575832,2.62653 -6.58542,1.26148 -5.96656,8.71663 -3.19478,13.16627 5.56605,12.62797 11.553602,25.45 16.712592,38.05225 7.43642,-0.62404 13.96755,-7.23529 22.04276,-6.14014 11.01226,-1.21729 21.98956,1.52847 30.89549,8.18527 5.36113,3.82027 14.45696,10.56491 10.30403,18.03326 -6.21037,7.65034 -16.00142,0.51554 -23.79097,0.32779 -8.38638,-0.89581 -18.56963,-0.0428 -24.90499,5.91923 -1.55757,8.27922 5.27526,15.73809 7.62702,23.3285 4.34089,8.38172 7.21463,17.98929 12.45137,25.66913 11.85474,-3.59774 24.45718,-8.40228 36.88361,-4.83611 11.07423,3.22826 23.79103,9.73356 26.66745,21.86699 0.64258,6.67657 -7.57558,7.25809 -12.28266,5.87886 -12.34569,-2.66133 -28.51899,-5.51317 -37.91448,5.2114 2.63898,11.08557 9.12655,21.4541 13.41093,32.14727 3.27323,5.17595 4.31463,12.86271 9.08788,16.44418 20.14554,-12.63986 50.44224,-6.01811 61.65558,15.21852 2.56196,5.22988 -2.84776,10.57965 -8.07601,9.31355 -11.97093,-1.01481 -24.50529,-6.54152 -36.10451,-0.51544 -3.75025,0.89623 -8.32187,3.91637 -4.78385,8.08076 6.20804,15.21709 12.60314,30.36685 19.5962,45.24227 6.79751,-0.20842 12.75023,-5.9906 20.04513,-6.60807 16.84576,-2.83182 36.16069,4.90671 44.74821,19.98575 2.84575,5.92716 -3.06448,12.55364 -9.12826,9.99525 -13.30952,-4.09064 -29.38264,-4.72901 -40.962,4.03563 -1.20472,7.04817 4.34465,13.78831 6.24696,20.39791 4.62511,9.24763 7.45846,19.75982 13.22336,28.27905 6.95518,0.72822 13.36489,-4.83896 20.53682,-4.81948 17.6179,-3.36619 38.78092,5.94635 43.44655,24.10214 -0.19473,8.3331 -10.65464,7.22759 -15.64609,4.18289 -11.22263,-3.71062 -25.17339,-1.6245 -34.01899,6.29455 -0.26664,9.02463 6.20893,17.06712 8.96437,25.46318 11.71043,26.26156 23.72452,52.39089 34.98575,78.85035 8.03899,-0.17313 16.17296,-5.79377 24.24819,-8.04564 24.1965,-9.23452 48.35097,-18.67868 72.43114,-28.15388 -0.78666,-7.3696 -6.45593,-14.22363 -8.91632,-21.37824 C 303.72654,537.21333 218.37428,354.73685 131.69467,172.89464 c -2.90721,-6.31964 -5.56591,-16.50013 -13.91735,-9.44911 -1.25199,0.50656 -2.50399,1.01312 -3.75598,1.51969 z"
     id="path4792" />
  <path
     style="fill:#ac9393;fill-opacity:1;stroke-width:1.21615"
     d="m 248.6318,682.91296 c -6.5169,7.49487 -8.91989,18.1018 -11.88124,27.46318 -1.27041,8.92521 -4.57223,18.51262 -2.40915,27.2822 11.67324,25.46632 22.27845,51.74624 34.61105,76.71068 4.94238,-5.69546 7.11425,-14.57033 12.79335,-20.42993 3.71738,-5.15437 9.74233,-8.83902 12.59145,-14.31592 -13.59369,-31.22749 -26.57279,-62.81447 -41.88124,-93.23753 -0.99084,-1.23443 -1.83864,-3.79999 -3.82422,-3.47268 z"
     id="path4794" />
  <path
     style="fill:#ac9393;fill-opacity:1;stroke-width:1.21615"
     d="m 215.46315,606.04123 c -5.46815,3.19719 -5.82303,11.3115 -8.72684,16.57719 -5.68505,15.55383 -9.21348,33.39457 -1.44097,48.92939 3.44979,6.87558 4.87707,15.74269 10.4766,21.08486 3.38647,-1.4938 1.69083,-7.31755 3.63658,-10.26128 3.20228,-12.19451 10.3923,-22.93144 17.24465,-33.04038 -6.21109,-14.2401 -11.24306,-29.28156 -19.32779,-42.55582 -0.49979,-0.4621 -1.16632,-0.79805 -1.86223,-0.73396 z"
     id="path4796" />
  <path
     style="fill:#ac9393;fill-opacity:1;stroke-width:1.21615"
     d="m 180.79569,526.4284 c -5.73718,4.76627 -6.35257,13.69548 -9.13178,20.31602 -3.75837,14.64746 -10.05677,31.11751 -1.94185,45.52721 3.7239,8.25818 6.79263,16.94008 11.33966,24.76247 4.26809,-0.43775 2.87597,-8.08536 4.78623,-11.23991 2.85499,-12.43301 10.52684,-23.16566 17.34679,-33.37292 -7.28553,-15.06323 -12.32597,-31.50661 -21.11164,-45.71259 -0.37021,-0.25803 -0.842,-0.37069 -1.28741,-0.28028 z"
     id="path4798" />
  <path
     style="fill:#ac9393;fill-opacity:1;stroke-width:1.21615"
     d="m 145.89783,448.28351 c -9.01248,18.16457 -15.75982,38.75217 -13.52732,59.24703 3.48374,10.52283 7.79005,21.15728 13.7601,30.45605 4.15515,-1.01674 2.94901,-8.17412 4.93757,-11.47085 3.34792,-11.54417 9.57732,-22.08027 17.64913,-30.95195 -5.04817,-14.85514 -12.47316,-29.5168 -19.35202,-43.88157 -0.94784,-1.06073 -1.2743,-4.73702 -3.46746,-3.39871 z"
     id="path4800" />
  <path
     style="fill:#ac9393;fill-opacity:1;stroke-width:1.21615"
     d="m 111.82419,372.88683 c -8.96661,16.51961 -15.553872,34.8928 -13.874112,53.98812 0.59658,12.26149 6.934132,23.54405 12.752972,34.04276 3.98442,3.32289 3.63885,-4.06939 4.3658,-6.1734 3.23965,-13.1153 9.47855,-25.32285 18.4323,-35.51544 -5.30232,-15.55682 -12.29913,-31.14499 -19.77909,-46.0285 l -0.87174,-0.63183 z"
     id="path4802" />
  <path
     style="fill:#ac9393;fill-opacity:1;stroke-width:1.21615"
     d="m 78.722058,298.05073 c -13.68074,22.10857 -21.88799,51.52856 -8.97876,75.86667 2.66153,3.99051 3.57468,11.73744 8.05477,12.86492 3.19277,-16.15709 10.57491,-31.84203 22.420422,-43.72209 -4.297002,-13.57564 -11.373252,-26.86862 -17.242282,-40.11164 -1.34125,-1.37663 -1.56451,-6.0328 -4.25415,-4.89786 z"
     id="path4804" />
  <path
     style="fill:#ac9393;fill-opacity:1;stroke-width:1.21615"
     d="m 35.589038,197.79182 c -10.78213,15.77536 -20.082084,34.29211 -17.5677,54.0095 1.22342,15.9256 11.00306,29.50773 16.66192,44.0784 2.88775,4.71422 4.19701,11.18794 8.57324,14.67457 3.62923,-2.84467 2.77099,-9.60127 5.18817,-13.73702 3.48593,-11.3196 10.70847,-20.9658 18.95672,-29.27723 -4.48283,-14.26431 -12.26506,-28.09925 -17.98771,-42.20661 -4.42612,-9.14316 -7.78627,-19.09745 -12.77713,-27.78864 z"
     id="path4806" />
</svg>
